<svg xmlns="http://www.w3.org/2000/svg" width="1512" height="900" fill="none" viewBox="0 0 1512 900"><g clip-path="url(#clip0_4817_18582)"><rect width="1512" height="900" fill="#fff"/><g opacity=".09"><line x1="-10.617" x2="1500.96" y1="625.328" y2="625.328" stroke="#1F2D5C" stroke-opacity=".4" stroke-width=".6"/><line x1="-10.617" x2="1500.96" y1="302.59" y2="302.59" stroke="#1F2D5C" stroke-opacity=".4" stroke-width=".6"/><line x1="-10.617" x2="1500.96" y1="463.958" y2="463.958" stroke="#1F2D5C" stroke-opacity=".4" stroke-width=".6"/><line x1="-10.617" x2="1500.96" y1="786.696" y2="786.696" stroke="#1F2D5C" stroke-opacity=".4" stroke-width=".6"/><line x1="-10.617" x2="1500.96" y1="141.22" y2="141.22" stroke="#1F2D5C" stroke-opacity=".4" stroke-width=".6"/><line x1="-10.617" x2="1500.96" y1="544.642" y2="544.642" stroke="#1F2D5C" stroke-opacity=".4" stroke-width=".6"/><line x1="-10.617" x2="1500.96" y1="867.381" y2="867.381" stroke="#1F2D5C" stroke-opacity=".4" stroke-width=".6"/><line x1="-10.617" x2="1500.96" y1="221.904" y2="221.904" stroke="#1F2D5C" stroke-opacity=".4" stroke-width=".6"/><line x1="-10.617" x2="1500.96" y1="383.272" y2="383.272" stroke="#1F2D5C" stroke-opacity=".4" stroke-width=".6"/><line x1="-10.617" x2="1500.96" y1="706.012" y2="706.013" stroke="#1F2D5C" stroke-opacity=".4" stroke-width=".6"/><line x1="-10.617" x2="1500.96" y1="60.534" y2="60.534" stroke="#1F2D5C" stroke-opacity=".4" stroke-width=".6"/><line x1="36.327" x2="36.327" y1="-48.846" y2="1118.56" stroke="#1F2D5C" stroke-opacity=".4" stroke-width=".6"/><line x1="681.808" x2="681.808" y1="-48.846" y2="1118.56" stroke="#1F2D5C" stroke-opacity=".4" stroke-width=".6"/><line x1="359.068" x2="359.068" y1="-48.846" y2="1118.56" stroke="#1F2D5C" stroke-opacity=".4" stroke-width=".6"/><line x1="1004.54" x2="1004.54" y1="-48.846" y2="1118.56" stroke="#1F2D5C" stroke-opacity=".4" stroke-width=".6"/><line x1="1327.28" x2="1327.28" y1="-48.846" y2="1118.56" stroke="#1F2D5C" stroke-opacity=".4" stroke-width=".6"/><line x1="197.698" x2="197.698" y1="-48.846" y2="1118.56" stroke="#1F2D5C" stroke-opacity=".4" stroke-width=".6"/><line x1="843.173" x2="843.173" y1="-48.846" y2="1118.56" stroke="#1F2D5C" stroke-opacity=".4" stroke-width=".6"/><line x1="520.439" x2="520.439" y1="-48.846" y2="1118.56" stroke="#1F2D5C" stroke-opacity=".4" stroke-width=".6"/><line x1="1165.92" x2="1165.92" y1="-48.846" y2="1118.56" stroke="#1F2D5C" stroke-opacity=".4" stroke-width=".6"/><line x1="1488.66" x2="1488.66" y1="-48.846" y2="1118.56" stroke="#1F2D5C" stroke-opacity=".4" stroke-width=".6"/><line x1="117.015" x2="117.015" y1="-48.846" y2="1118.56" stroke="#1F2D5C" stroke-opacity=".4" stroke-width=".6"/><line x1="762.491" x2="762.491" y1="-48.846" y2="1118.56" stroke="#1F2D5C" stroke-opacity=".4" stroke-width=".6"/><line x1="439.751" x2="439.751" y1="-48.846" y2="1118.56" stroke="#1F2D5C" stroke-opacity=".4" stroke-width=".6"/><line x1="1085.23" x2="1085.23" y1="-48.846" y2="1118.56" stroke="#1F2D5C" stroke-opacity=".4" stroke-width=".6"/><line x1="1407.97" x2="1407.97" y1="-48.846" y2="1118.56" stroke="#1F2D5C" stroke-opacity=".4" stroke-width=".6"/><line x1="278.384" x2="278.384" y1="-48.846" y2="1118.56" stroke="#1F2D5C" stroke-opacity=".4" stroke-width=".6"/><line x1="923.861" x2="923.86" y1="-48.846" y2="1118.56" stroke="#1F2D5C" stroke-opacity=".4" stroke-width=".6"/><line x1="601.12" x2="601.12" y1="-48.846" y2="1118.56" stroke="#1F2D5C" stroke-opacity=".4" stroke-width=".6"/><line x1="1246.6" x2="1246.6" y1="-48.846" y2="1118.56" stroke="#1F2D5C" stroke-opacity=".4" stroke-width=".6"/></g><g opacity=".5"><rect width="80.226" height="80.226" x="440.141" y="786.309" fill="#3F76FF" fill-opacity=".07"/><rect width="80.226" height="79.08" x="1166.76" y="222.433" fill="#3F76FF" fill-opacity=".07"/><rect width="80.226" height="79.08" x="520.367" y="464.207" fill="#3F76FF" fill-opacity=".07"/><rect width="80.226" height="79.08" x="1085.39" y="302.659" fill="#3F76FF" fill-opacity=".07"/><rect width="80.226" height="80.08" x="1166" y="383" fill="#3F76FF" fill-opacity=".07"/><rect width="80.226" height="81.08" x="1247" y="302" fill="#3F76FF" fill-opacity=".07"/><rect width="80.226" height="79.08" x="439.994" y="222.433" fill="#3F76FF" fill-opacity=".07"/><rect width="80.226" height="79.08" x="1085.39" y="222.433" fill="#3F76FF" fill-opacity=".07"/><rect width="80.226" height="79.08" x="439.994" y="464.207" fill="#3F76FF" fill-opacity=".07"/><rect width="80.226" height="80.226" x="359.914" y="786.309" fill="#3F76FF" fill-opacity=".07"/><rect width="80.226" height="81.372" x="359.914" y="866.535" fill="#3F76FF" fill-opacity=".07"/><rect width="80.226" height="80.226" x="198.314" y="706.082" fill="#3F76FF" fill-opacity=".07"/><rect width="80.226" height="80.226" x="1005.16" y="60.835" fill="#3F76FF" fill-opacity=".07"/><rect width="80.226" height="79.506" x="924.059" y="-19.852" fill="#3F76FF" fill-opacity=".07"/><rect width="80.226" height="80.028" x="924.059" y="60.405" fill="#3F76FF" fill-opacity=".07"/><rect width="81.372" height="80.226" x="116.943" y="59.688" fill="#3F76FF" fill-opacity=".07"/><rect width="81.372" height="80.226" x="36.717" y="60.835" fill="#3F76FF" fill-opacity=".07"/><rect width="81.372" height="82.518" x="116.943" y="139.915" fill="#3F76FF" fill-opacity=".07"/><rect width="81.372" height="80.226" x="440.141" y="-20.538" fill="#3F76FF" fill-opacity=".07"/><rect width="80.226" height="81.372" x="198.316" y="301.513" fill="#3F76FF" fill-opacity=".07"/><rect width="80.226" height="80.226" x="1166.76" y="706.082" fill="#3F76FF" fill-opacity=".07"/><rect width="80.226" height="80.226" x="1246.99" y="786.309" fill="#3F76FF" fill-opacity=".07"/><rect width="81" height="82" x="37" y="221" fill="#3F76FF" fill-opacity=".07"/><rect width="81" height="82" x="-44" y="141" fill="#3F76FF" fill-opacity=".07"/></g></g><defs><clipPath id="clip0_4817_18582"><rect width="1512" height="900" fill="#fff"/></clipPath></defs></svg>