<svg xmlns="http://www.w3.org/2000/svg" width="206" height="217" fill="none" viewBox="0 0 206 217"><circle cx="103" cy="102.5" r="102.5" fill="url(#paint0_linear_8013_111910)"/><path stroke="#B9BBC6" stroke-linecap="round" stroke-linejoin="round" stroke-width="3.36" d="M153 64.75H53C46.0964 64.75 40.5 70.3464 40.5 77.25V139.75C40.5 146.654 46.0964 152.25 53 152.25H153C159.904 152.25 165.5 146.654 165.5 139.75V77.25C165.5 70.3464 159.904 64.75 153 64.75Z"/><path stroke="#B9BBC6" stroke-linecap="round" stroke-linejoin="round" stroke-width="3.36" d="M128 152.25V52.25C128 48.9348 126.683 45.7554 124.339 43.4112C121.995 41.067 118.815 39.75 115.5 39.75H90.5C87.1848 39.75 84.0054 41.067 81.6612 43.4112C79.317 45.7554 78 48.9348 78 52.25V152.25"/><g filter="url(#filter0_ddd_8013_111910)"><circle cx="104" cy="174" r="31" fill="#3A5BC7"/><path stroke="#F9F9FB" stroke-linecap="round" stroke-linejoin="round" stroke-width="3.571" d="M89 164H119"/><path stroke="#F9F9FB" stroke-linecap="round" stroke-linejoin="round" stroke-width="3.571" d="M95.667 174H112.334"/><path stroke="#F9F9FB" stroke-linecap="round" stroke-linejoin="round" stroke-width="3.571" d="M100.667 184H107.334"/></g><defs><filter id="filter0_ddd_8013_111910" width="78" height="79" x="65" y="138" color-interpolation-filters="sRGB" filterUnits="userSpaceOnUse"><feFlood flood-opacity="0" result="BackgroundImageFix"/><feColorMatrix in="SourceAlpha" result="hardAlpha" type="matrix" values="0 0 0 0 0 0 0 0 0 0 0 0 0 0 0 0 0 0 127 0"/><feMorphology in="SourceAlpha" operator="erode" radius="2" result="effect1_dropShadow_8013_111910"/><feOffset dy="2"/><feGaussianBlur stdDeviation="1.5"/><feComposite in2="hardAlpha" operator="out"/><feColorMatrix type="matrix" values="0 0 0 0 0 0 0 0 0 0 0 0 0 0 0.24 0 0 0 0.051 0"/><feBlend in2="BackgroundImageFix" mode="normal" result="effect1_dropShadow_8013_111910"/><feColorMatrix in="SourceAlpha" result="hardAlpha" type="matrix" values="0 0 0 0 0 0 0 0 0 0 0 0 0 0 0 0 0 0 127 0"/><feMorphology in="SourceAlpha" operator="erode" radius="4" result="effect2_dropShadow_8013_111910"/><feOffset dy="3"/><feGaussianBlur stdDeviation="6"/><feComposite in2="hardAlpha" operator="out"/><feColorMatrix type="matrix" values="0 0 0 0 0 0 0 0 0 0 0 0 0 0 0 0 0 0 0.055 0"/><feBlend in2="effect1_dropShadow_8013_111910" mode="normal" result="effect2_dropShadow_8013_111910"/><feColorMatrix in="SourceAlpha" result="hardAlpha" type="matrix" values="0 0 0 0 0 0 0 0 0 0 0 0 0 0 0 0 0 0 127 0"/><feMorphology in="SourceAlpha" operator="erode" radius="8" result="effect3_dropShadow_8013_111910"/><feOffset dy="4"/><feGaussianBlur stdDeviation="8"/><feComposite in2="hardAlpha" operator="out"/><feColorMatrix type="matrix" values="0 0 0 0 0 0 0 0 0 0 0 0 0 0 0 0 0 0 0.078 0"/><feBlend in2="effect2_dropShadow_8013_111910" mode="normal" result="effect3_dropShadow_8013_111910"/><feBlend in="SourceGraphic" in2="effect3_dropShadow_8013_111910" mode="normal" result="shape"/></filter><linearGradient id="paint0_linear_8013_111910" x1="103" x2="103" y1="0" y2="207.52" gradientUnits="userSpaceOnUse"><stop stop-color="#F7F7F7"/><stop offset="1" stop-color="#F8F9FA" stop-opacity="0"/></linearGradient></defs></svg>